<?xml version="1.0" encoding="utf-8"?>
<!-- Generator: Adobe Illustrator 24.2.2, SVG Export Plug-In . SVG Version: 6.00 Build 0)  -->
<svg version="1.1" id="Layer_1" xmlns="http://www.w3.org/2000/svg" xmlns:xlink="http://www.w3.org/1999/xlink" x="0px" y="0px"
	 viewBox="0 0 152.5 170.3" style="enable-background:new 0 0 152.5 170.3;" xml:space="preserve">
<style type="text/css">
	.st0{fill:#1D3666;}
	.st1{fill:#FDBC2D;}
	.st2{fill:none;}
</style>
<path class="st0" d="M123.8,63.8l-8.7,5c-0.6,0.4-1.4,0.1-1.8-0.5c-5.7-9.5-16.1-15.9-28.1-15.9c-18.8,0-34,15.9-32.6,35.1
	c1.1,16.3,14.5,29.5,30.9,30.3c7.2,0.4,13.9-1.6,19.5-5.2h18.4c-8.3,10.9-21.4,18-36.1,18c-25.7,0-46.4-21.3-45.4-47.2
	c0.9-23.9,20.7-43.3,44.7-43.6c16.9-0.3,31.8,8.7,39.8,22.2C124.7,62.6,124.4,63.4,123.8,63.8z"/>
<path class="st1" d="M150.9,135.7c1.4,1.5,1.6,3.8,0.2,5.4c-1.8,2.1-3.7,4.2-5.7,6.1c-1.5,1.5-3.8,1.5-5.5,0.2
	c-4.6-3.7-11.3-4.3-16.6-1c-5.3,3.3-7.7,9.6-6.4,15.4c0.5,2.1-0.6,4.2-2.6,4.9c-2.6,0.9-5.3,1.7-8,2.4c-2,0.5-4.1-0.7-4.8-2.6
	c-2.2-5.5-7.6-9.4-13.9-9.2s-11.5,4.4-13.3,10.1c-0.6,2-2.6,3.3-4.6,2.9c-2.8-0.5-5.5-1.1-8.1-1.9c-2-0.6-3.2-2.6-2.9-4.7
	c0.9-5.9-1.9-11.9-7.5-14.9c-5.5-3-12.1-1.9-16.5,2.1c-1.5,1.4-3.9,1.6-5.5,0.2c-2.1-1.8-4.2-3.7-6.1-5.7c-1.5-1.5-1.5-3.8-0.2-5.5
	c3.7-4.6,4.3-11.3,1-16.6c-3.3-5.3-9.6-7.7-15.4-6.4c-2.1,0.5-4.2-0.6-4.9-2.5c-0.9-2.6-1.8-5.3-2.4-8c-0.5-2,0.7-4.1,2.6-4.8
	c5.5-2.1,9.4-7.6,9.2-13.9c-0.1-6.4-4.3-11.6-10-13.4c-2-0.6-3.3-2.6-2.9-4.6c0.5-2.8,1.1-5.5,1.9-8.1c0.6-2,2.6-3.2,4.7-2.9
	c5.9,0.9,12-1.9,14.9-7.4c3-5.5,1.9-12.2-2.1-16.5c-1.4-1.5-1.6-3.9-0.2-5.5c1.8-2.1,3.7-4.2,5.7-6.1c1.5-1.5,3.9-1.5,5.5-0.2
	c4.6,3.7,11.3,4.3,16.6,1s7.8-9.6,6.4-15.4c-0.5-2,0.6-4.2,2.5-4.9c2.6-0.9,5.3-1.7,8-2.4c2-0.5,4.1,0.7,4.8,2.6
	c2.1,5.6,7.6,9.4,13.9,9.2C89,12.9,94.3,8.7,96,3c0.6-2,2.6-3.3,4.7-2.9c2.8,0.5,5.5,1.1,8.1,1.9c2,0.6,3.2,2.6,2.9,4.7
	c-0.9,5.9,1.9,12,7.4,15s12.2,1.9,16.5-2.1c1.5-1.4,3.9-1.6,5.5-0.2c2.1,1.8,4.1,3.7,6.1,5.7c1.5,1.5,1.5,3.9,0.2,5.5
	c-3.7,4.7-4.3,11.3-1,16.7c0.3,0.5,0.6,0.9,0.9,1.3c0.5,0.6,0.4,1.6-0.4,2l-14,8.1c-0.6,0.4-1.4,0.1-1.8-0.5
	c-9.7-16.4-28-27.2-48.7-26.2C55,33.1,32.8,55.5,31.7,83c-1.2,30.5,23.2,55.7,53.4,55.7c12,0,23.2-4,32.1-10.7
	c5.4-4,9.9-9,13.4-14.8c0.2-0.4,0.7-0.6,1.1-0.6h19.5c1.2,0,1.8,1.5,0.8,2.3c-1.4,1.1-2.5,2.6-3.4,4.3c-1.5,2.8-2,5.9-1.6,8.8
	C147.6,130.8,148.9,133.5,150.9,135.7z"/>
</svg>
