<?xml version="1.0" encoding="utf-8"?>
<!-- Generator: Adobe Illustrator 24.2.2, SVG Export Plug-In . SVG Version: 6.00 Build 0)  -->
<svg version="1.1" id="Layer_1" xmlns="http://www.w3.org/2000/svg" xmlns:xlink="http://www.w3.org/1999/xlink" x="0px" y="0px"
	 viewBox="0 0 152.5 170.3" style="enable-background:new 0 0 152.5 170.3;" xml:space="preserve">
<style type="text/css">
	.st0{display:none;fill:#1D3666;}
	.st1{fill:#1D3666;}
	.st2{fill:#FDBC2D;}
	.st3{display:none;fill:#FDBC2D;}
	.st4{fill:none;stroke:#FDBC2D;stroke-width:4;stroke-miterlimit:10;}
</style>
<path class="st0" d="M137.4,94.3c-0.9,5.5-2.7,10.6-5.2,15.4h-8.7c-8.1,12.5-22.2,20.9-38.2,20.9c-25.7,0-46.4-21.3-45.4-47.2
	c0.9-23.9,20.7-43.3,44.7-43.6c16.9-0.3,31.8,8.7,39.8,22.2c0.4,0.6,0.1,1.4-0.5,1.8l-8.7,5c-0.6,0.4-1.4,0.1-1.8-0.5
	c-5.7-9.5-16.1-15.9-28.1-15.9c-18.8,0-34,15.9-32.6,35.1c1.1,16.3,14.5,29.5,30.9,30.3c11.9,0.6,22.6-5.2,28.8-14.2
	c1.9-2.8,3.4-5.9,4.4-9.3H137.4z"/>
<path class="st1" d="M123.8,63.8l-8.7,5c-0.6,0.4-1.4,0.1-1.8-0.5c-5.7-9.5-16.1-15.9-28.1-15.9c-18.8,0-34,15.9-32.6,35.1
	c1.1,16.3,14.5,29.5,30.9,30.3c7.2,0.4,13.9-1.6,19.5-5.2h18.4c-8.3,10.9-21.4,18-36.1,18c-25.7,0-46.4-21.3-45.4-47.2
	c0.9-23.9,20.7-43.3,44.7-43.6c16.9-0.3,31.8,8.7,39.8,22.2C124.7,62.6,124.4,63.4,123.8,63.8z"/>
<path class="st2" d="M150.9,135.7c1.4,1.5,1.6,3.8,0.2,5.4c-1.8,2.1-3.7,4.2-5.7,6.1c-1.5,1.5-3.8,1.5-5.5,0.2
	c-4.6-3.7-11.3-4.3-16.6-1c-5.3,3.3-7.7,9.6-6.4,15.4c0.5,2.1-0.6,4.2-2.6,4.9c-2.6,0.9-5.3,1.7-8,2.4c-2,0.5-4.1-0.7-4.8-2.6
	c-2.2-5.5-7.6-9.4-13.9-9.2s-11.5,4.4-13.3,10.1c-0.6,2-2.6,3.3-4.6,2.9c-2.8-0.5-5.5-1.1-8.1-1.9c-2-0.6-3.2-2.6-2.9-4.7
	c0.9-5.9-1.9-11.9-7.5-14.9c-5.5-3-12.1-1.9-16.5,2.1c-1.5,1.4-3.9,1.6-5.5,0.2c-2.1-1.8-4.2-3.7-6.1-5.7c-1.5-1.5-1.5-3.8-0.2-5.5
	c3.7-4.6,4.3-11.3,1-16.6c-3.3-5.3-9.6-7.7-15.4-6.4c-2.1,0.5-4.2-0.6-4.9-2.5c-0.9-2.6-1.8-5.3-2.4-8c-0.5-2,0.7-4.1,2.6-4.8
	c5.5-2.1,9.4-7.6,9.2-13.9c-0.1-6.4-4.3-11.6-10-13.4c-2-0.6-3.3-2.6-2.9-4.6c0.5-2.8,1.1-5.5,1.9-8.1c0.6-2,2.6-3.2,4.7-2.9
	c5.9,0.9,12-1.9,14.9-7.4c3-5.5,1.9-12.2-2.1-16.5c-1.4-1.5-1.6-3.9-0.2-5.5c1.8-2.1,3.7-4.2,5.7-6.1c1.5-1.5,3.9-1.5,5.5-0.2
	c4.6,3.7,11.3,4.3,16.6,1s7.8-9.6,6.4-15.4c-0.5-2,0.6-4.2,2.5-4.9c2.6-0.9,5.3-1.7,8-2.4c2-0.5,4.1,0.7,4.8,2.6
	c2.1,5.6,7.6,9.4,13.9,9.2C89,12.9,94.3,8.7,96,3c0.6-2,2.6-3.3,4.7-2.9c2.8,0.5,5.5,1.1,8.1,1.9c2,0.6,3.2,2.6,2.9,4.7
	c-0.9,5.9,1.9,12,7.4,15s12.2,1.9,16.5-2.1c1.5-1.4,3.9-1.6,5.5-0.2c2.1,1.8,4.1,3.7,6.1,5.7c1.5,1.5,1.5,3.9,0.2,5.5
	c-3.7,4.7-4.3,11.3-1,16.7c0.3,0.5,0.6,0.9,0.9,1.3c0.5,0.6,0.4,1.6-0.4,2l-14,8.1c-0.6,0.4-1.4,0.1-1.8-0.5
	c-9.7-16.4-28-27.2-48.7-26.2C55,33.1,32.8,55.5,31.7,83c-1.2,30.5,23.2,55.7,53.4,55.7c12,0,23.2-4,32.1-10.7
	c5.4-4,9.9-9,13.4-14.8c0.2-0.4,0.7-0.6,1.1-0.6h19.5c1.2,0,1.8,1.5,0.8,2.3c-1.4,1.1-2.5,2.6-3.4,4.3c-1.5,2.8-2,5.9-1.6,8.8
	C147.6,130.8,148.9,133.5,150.9,135.7z"/>
<path class="st3" d="M166.8,96.1c-1.3-0.4-2.5-1-3.6-1.8c-3.8-2.5-6.3-6.7-6.4-11.7c-0.2-6.3,3.7-11.8,9.2-13.9
	c1.9-0.7,3.1-2.8,2.6-4.8c-0.6-2.7-1.5-5.4-2.4-8c-0.7-1.9-2.8-3-4.9-2.5c-4.9,1.1-10.2-0.5-13.7-4.2c0-0.2-0.1-0.5-0.3-0.7
	c-0.3-0.4-0.6-0.8-0.9-1.3c-3.3-5.4-2.7-12,1-16.7c1.3-1.6,1.3-4-0.2-5.5c-2-2-4-3.9-6.1-5.7c-0.6-0.5-1.3-0.8-2.1-0.9
	c-1.3-0.3-2.8,0-3.9,1c-3.3,3-7.8,4.3-12.1,3.6c-1.3-0.3-2.7-0.7-3.9-1.4c-5.5-3-8.3-9.1-7.4-15c0.3-2.1-0.9-4.1-2.9-4.7
	c-2.6-0.8-5.3-1.4-8.1-1.9c-0.4-0.1-0.7-0.1-1,0c-1.8-0.1-3.6,1.1-4.1,2.9c-1.8,5.7-7,9.9-13.3,10.1c-6.1,0-11.4-3.7-13.5-9.2
	c-0.6-1.7-2.4-2.8-4.2-2.7c-0.4,0-0.8,0-1.1,0.1c-2.7,0.7-5.4,1.5-8,2.4c-2,0.7-3.1,2.8-2.6,4.9c1.3,5.8-1.1,12.1-6.4,15.4
	c-2.3,1.4-4.7,2.1-7.2,2.1C36.1,26,33,25,30.5,23c-0.9-0.7-2-1-3-0.9c-1.1-0.1-2.2,0.3-3.1,1.1c-2,1.9-3.9,4-5.7,6.1
	c-1.4,1.6-1.2,3.9,0.2,5.4c2,2.2,3.3,4.9,3.9,7.7c0.4,2.9-0.1,6-1.6,8.8c-0.9,1.7-2,3.2-3.4,4.3c-0.2,0.2-0.4,0.4-0.4,0.6
	c-3,2.2-6.9,3.1-10.7,2.6c-2.1-0.3-4.1,0.9-4.7,2.9c-0.8,2.6-1.4,5.3-1.9,8.1c-0.4,2,0.9,4,2.9,4.6c5.7,1.8,9.9,7,10,13.4
	c0.2,6.3-3.7,11.8-9.2,13.9c-1.9,0.7-3.1,2.8-2.6,4.8c0.6,2.7,1.5,5.4,2.4,8c0.7,1.9,2.8,3,4.9,2.5c4.9-1.1,10.2,0.5,13.7,4.2
	c0,0.2,0.1,0.5,0.3,0.7c0.3,0.4,0.6,0.8,0.9,1.3c3.3,5.4,2.7,12-1,16.7c-1.3,1.6-1.3,4,0.2,5.5c2,2,4,3.9,6.1,5.7
	c0.6,0.5,1.3,0.8,2.1,0.9c1.3,0.3,2.8,0,3.9-1c3.3-3,7.8-4.3,12.1-3.6c1.3,0.3,2.6,0.7,3.9,1.4c5.5,3,8.3,9.1,7.4,15
	c-0.3,2.1,0.9,4.1,2.9,4.7c2.6,0.8,5.3,1.4,8.1,1.9c0.4,0.1,0.7,0.1,1.1,0c1.8,0.1,3.6-1.1,4.1-2.9c1.8-5.7,7-9.9,13.3-10.1
	c6.1,0,11.4,3.7,13.5,9.2c0.6,1.7,2.4,2.8,4.2,2.7c0.4,0,0.7,0,1.1-0.1c2.7-0.7,5.4-1.5,8-2.4c2-0.7,3.1-2.8,2.6-4.9
	c-1.3-5.8,1.1-12.1,6.4-15.4c2.3-1.4,4.7-2.1,7.2-2.1c3.2,0.1,6.3,1.1,8.8,3.1c0.9,0.7,2,1,3,0.9c1.1,0.1,2.2-0.3,3.1-1.1
	c2-1.9,3.9-4,5.7-6.1c1.4-1.6,1.2-3.9-0.2-5.4c-2-2.2-3.3-4.9-3.9-7.7c-0.4-2.9,0.1-6,1.6-8.8c0.9-1.7,2-3.2,3.4-4.3
	c0.2-0.2,0.4-0.4,0.4-0.6c3-2.2,6.9-3.1,10.7-2.6c1.7,0.3,3.4-0.5,4.3-1.9c0.2-0.3,0.3-0.6,0.4-1c0.8-2.6,1.4-5.3,1.9-8.1
	C170.1,98.6,168.8,96.6,166.8,96.1z M87.4,138.3c-10.5,0.5-20.4-2-28.9-6.8C41.9,122,30.9,103.7,31.7,83C32.8,55.5,55,33.1,82.4,32
	c10.5-0.5,20.4,2,28.9,6.8c16.6,9.6,27.6,27.9,26.8,48.6c-0.1,2.4-0.3,4.7-0.7,7c-0.9,5.5-2.7,10.6-5.2,15.4
	C123.6,126.1,106.8,137.6,87.4,138.3z"/>
<g>
	<path class="st4" d="M97.9,64.9l-5.3,5.3c-2.3,2.6-1.9,6.1,0,7.6c1.4,1,3.5,1,5.3,0l6.6-6.6c0.3,0.7,2.1,4.8,0,8.5
		c-1,1.7-2.3,2.6-3.2,3.2c-4,2.6-8.4,2.1-10.1,1.8L80.3,97.6c0,0.4,0.3,4.4-2.7,7c-2.3,2-6.1,2.9-9,0.9c-2.5-1.7-3.2-4.8-2.9-7.1
		c0.4-2.9,2.3-4.5,2.9-5c2.4-1.9,5.1-1.8,5.7-1.8L86,79c-0.2-0.7-1.9-5.5,0.8-9.8c1.5-2.3,3.6-3.4,4.1-3.6
		C94.1,64,97.1,64.7,97.9,64.9z"/>
	<g>
		<g>
			<path class="st2" d="M73.2,67.7l7.4,7.4v3.8l-3.4,3.8l-8.8-8.8v-2.6l3.6-3.6H73.2 M74.8,63.7h-4.5l-6,6v5.9l12.9,12.9l7.3-8v-7
				L74.8,63.7L74.8,63.7z"/>
		</g>
	</g>
	<line class="st4" x1="67.2" y1="66.8" x2="82.8" y2="82.4"/>
	<path class="st4" d="M87.2,91.4l3.8,3.4c0.3,0.3,0.4,0.6,0.4,1v3.6c0,0.5,0.2,0.9,0.7,1.1l8.2,4.9c0.5,0.3,1.2,0.2,1.7-0.3l2.8-3.1
		c0.4-0.4,0.5-1,0.2-1.5l-4.9-9.1c-0.3-0.5-0.8-0.8-1.3-0.7l-3,0.4c-0.4,0.1-0.8-0.1-1.1-0.4l-3.5-3.6c-0.5-0.6-1.5-0.5-2,0.1
		l-2.1,2.4C86.6,90.1,86.7,90.9,87.2,91.4z"/>
</g>
</svg>
